{
  "accessors": [
    {
      "bufferView": 2,
      "componentType": 5126,
      "count": 718,
      "max": [
        24.395902633666992,
        26.157899856567383,
        76.78614044189453
      ],
      "min": [
        -15.953330993652344,
        -25.13812828063965,
        0.12902450561523438
      ],
      "type": "VEC3"
    },
    {
      "bufferView": 2,
      "byteOffset": 8616,
      "componentType": 5126,
      "count": 718,
      "max": [
        0.9238796234130859,
        1.0,
        1.0
      ],
      "min": [
        -0.9247592091560364,
        -1.0,
        -1.0
      ],
      "type": "VEC3"
    },
    {
      "bufferView": 1,
      "componentType": 5126,
      "count": 718,
      "max": [
        8.662973403930664,
        0.997797429561615
      ],
      "min": [
        0.002833675593137741,
        0.001202097162604332
      ],
      "type": "VEC2"
    },
    {
      "bufferView": 0,
      "componentType": 5125,
      "count": 1038,
      "type": "SCALAR"
    },
    {
      "bufferView": 2,
      "byteOffset": 17232,
      "componentType": 5126,
      "count": 4,
      "max": [
        39.370079040527344,
        39.370079040527344,
        0.0
      ],
      "min": [
        -39.370079040527344,
        -39.370079040527344,
        0.0
      ],
      "type": "VEC3"
    },
    {
      "bufferView": 2,
      "byteOffset": 17280,
      "componentType": 5126,
      "count": 4,
      "max": [
        0.0,
        0.0,
        1.0
      ],
      "min": [
        0.0,
        0.0,
        1.0
      ],
      "type": "VEC3"
    },
    {
      "bufferView": 1,
      "byteOffset": 5744,
      "componentType": 5126,
      "count": 4,
      "max": [
        1.0,
        1.0
      ],
      "min": [
        0.0,
        0.0
      ],
      "type": "VEC2"
    },
    {
      "bufferView": 0,
      "byteOffset": 4152,
      "componentType": 5125,
      "count": 6,
      "type": "SCALAR"
    }
  ],
  "asset": {
    "extras": {
      "author": "KobieCaestecker (https://sketchfab.com/KobieCaestecker)",
      "license": "CC-BY-4.0 (http://creativecommons.org/licenses/by/4.0/)",
      "source": "https://sketchfab.com/3d-models/wooden-barricade-blood-c67afba415534358b80afc60ed13c447",
      "title": "Wooden Barricade Blood"
    },
    "generator": "Sketchfab-12.68.0",
    "version": "2.0"
  },
  "bufferViews": [
    {
      "buffer": 0,
      "byteLength": 4176,
      "name": "floatBufferViews",
      "target": 34963
    },
    {
      "buffer": 0,
      "byteLength": 5776,
      "byteOffset": 4176,
      "byteStride": 8,
      "name": "floatBufferViews",
      "target": 34962
    },
    {
      "buffer": 0,
      "byteLength": 17328,
      "byteOffset": 9952,
      "byteStride": 12,
      "name": "floatBufferViews",
      "target": 34962
    }
  ],
  "buffers": [
    {
      "byteLength": 27280,
      "uri": "scene.bin"
    }
  ],
  "images": [
    {
      "uri": "textures/03_-_Default_baseColor.png"
    },
    {
      "uri": "textures/07_-_Default_baseColor.jpeg"
    }
  ],
  "materials": [
    {
      "doubleSided": true,
      "name": "03_-_Default",
      "pbrMetallicRoughness": {
        "baseColorTexture": {
          "index": 0
        },
        "metallicFactor": 0.0,
        "roughnessFactor": 0.8929713596497552
      }
    },
    {
      "doubleSided": true,
      "name": "07_-_Default",
      "pbrMetallicRoughness": {
        "baseColorTexture": {
          "index": 1
        },
        "metallicFactor": 0.0,
        "roughnessFactor": 0.8929713596497552
      }
    }
  ],
  "meshes": [
    {
      "name": "SM_Barricade_03 - Default_0",
      "primitives": [
        {
          "attributes": {
            "NORMAL": 1,
            "POSITION": 0,
            "TEXCOORD_0": 2
          },
          "indices": 3,
          "material": 0,
          "mode": 4
        }
      ]
    },
    {
      "name": "floor_grid_07 - Default_0",
      "primitives": [
        {
          "attributes": {
            "NORMAL": 5,
            "POSITION": 4,
            "TEXCOORD_0": 6
          },
          "indices": 7,
          "material": 1,
          "mode": 4
        }
      ]
    }
  ],
  "nodes": [
    {
      "children": [
        1
      ],
      "matrix": [
        1.0,
        0.0,
        0.0,
        0.0,
        0.0,
        2.220446049250313e-16,
        -1.0,
        0.0,
        0.0,
        1.0,
        2.220446049250313e-16,
        0.0,
        0.0,
        0.0,
        0.0,
        1.0
      ],
      "name": "Sketchfab_model"
    },
    {
      "children": [
        2
      ],
      "matrix": [
        1.0,
        0.0,
        0.0,
        0.0,
        0.0,
        0.0,
        1.0,
        0.0,
        0.0,
        -1.0,
        0.0,
        0.0,
        0.0,
        0.0,
        0.0,
        1.0
      ],
      "name": "03dc35ff446849278ce2644b6cc8c996.fbx"
    },
    {
      "children": [
        3,
        6
      ],
      "name": "RootNode"
    },
    {
      "children": [
        4
      ],
      "matrix": [
        7.549790115302102e-08,
        -0.9999999999999972,
        0.0,
        0.0,
        0.0,
        0.0,
        -1.0,
        0.0,
        0.9999999999999972,
        7.549790120853217e-08,
        0.0,
        0.0,
        0.0,
        0.0,
        0.0,
        1.0
      ],
      "name": "SM_Barricade"
    },
    {
      "children": [
        5
      ],
      "matrix": [
        1.0,
        0.0,
        -0.0,
        0.0,
        0.0,
        1.0,
        0.0,
        0.0,
        0.0,
        0.0,
        1.0,
        0.0,
        -24.10685157775879,
        -0.48841196298599243,
        -39.56385803222656,
        1.0
      ],
      "name": "Object_4"
    },
    {
      "mesh": 0,
      "name": "SM_Barricade_03 - Default_0"
    },
    {
      "children": [
        7
      ],
      "matrix": [
        1.0,
        0.0,
        0.0,
        0.0,
        0.0,
        2.220446049250313e-16,
        -1.0,
        0.0,
        0.0,
        1.0,
        2.220446049250313e-16,
        0.0,
        -0.6242752075195313,
        0.0,
        1.529388427734375,
        1.0
      ],
      "name": "floor_grid"
    },
    {
      "mesh": 1,
      "name": "floor_grid_07 - Default_0"
    }
  ],
  "samplers": [
    {
      "magFilter": 9729,
      "minFilter": 9987,
      "wrapS": 10497,
      "wrapT": 10497
    }
  ],
  "scene": 0,
  "scenes": [
    {
      "name": "Sketchfab_Scene",
      "nodes": [
        0
      ]
    }
  ],
  "textures": [
    {
      "sampler": 0,
      "source": 0
    },
    {
      "sampler": 0,
      "source": 1
    }
  ]
}
